<?xml version="1.0" standalone="no"?>
<!DOCTYPE svg PUBLIC "-//W3C//DTD SVG 20010904//EN"
 "http://www.w3.org/TR/2001/REC-SVG-20010904/DTD/svg10.dtd">
<svg version="1.0" xmlns="http://www.w3.org/2000/svg"
 width="700.000000pt" height="700.000000pt" viewBox="0 0 700.000000 700.000000"
 preserveAspectRatio="xMidYMid meet">
<metadata>
Created by potrace 1.14, written by Peter Selinger 2001-2017
</metadata>
<g transform="translate(0.000000,700.000000) scale(0.100000,-0.100000)"
fill="#000000" stroke="none">
<path d="M3090 6409 c-182 -22 -352 -140 -437 -304 l-37 -73 -91 2 c-85 3 -94
5 -135 36 -97 71 -266 124 -363 114 -129 -13 -199 -36 -294 -96 -135 -85 -227
-225 -257 -390 l-11 -61 -50 -17 c-85 -30 -147 -71 -226 -149 -181 -182 -220
-436 -103 -676 36 -75 148 -189 224 -229 30 -16 56 -30 58 -31 4 -4 10 -51 17
-134 3 -36 7 -81 10 -99 2 -19 7 -68 11 -110 3 -41 7 -83 9 -92 2 -9 6 -54 10
-101 4 -46 8 -91 10 -99 2 -8 6 -44 9 -80 9 -92 15 -149 20 -195 3 -22 8 -71
11 -110 4 -38 8 -81 10 -95 2 -14 7 -57 10 -96 3 -39 7 -80 9 -90 2 -10 7 -55
11 -98 4 -43 8 -86 10 -95 1 -9 6 -52 10 -96 3 -44 8 -91 10 -105 2 -14 7 -56
10 -95 4 -38 9 -83 10 -100 2 -16 6 -61 9 -100 4 -38 9 -83 11 -100 2 -16 7
-61 10 -98 4 -37 8 -76 10 -85 1 -9 6 -55 10 -101 4 -47 8 -92 10 -100 1 -9 6
-52 10 -96 4 -44 8 -93 10 -110 2 -16 9 -77 14 -135 6 -58 14 -130 17 -160 4
-30 8 -73 10 -95 1 -22 6 -65 9 -95 9 -81 21 -191 30 -295 11 -116 21 -194 31
-250 8 -43 57 -125 96 -160 50 -46 106 -72 178 -82 69 -10 3041 -9 3094 1 123
23 233 137 250 257 6 36 23 190 31 277 3 28 7 76 10 105 6 63 14 139 20 187 2
19 7 71 11 115 3 44 8 87 9 95 2 8 6 47 10 85 3 39 8 86 10 105 6 48 15 136
20 190 2 25 7 74 11 110 4 36 8 76 9 90 2 14 6 57 9 95 4 39 9 86 12 105 6 48
11 104 19 180 13 144 16 166 20 200 3 19 7 64 10 100 7 77 13 132 20 180 2 19
7 73 11 120 3 47 7 87 9 90 1 3 6 41 9 85 4 44 9 91 11 105 2 14 6 57 10 95 3
39 8 88 10 110 6 46 13 116 20 195 3 30 7 69 10 85 2 17 7 66 11 110 3 44 8
88 9 97 2 9 6 52 10 95 3 43 8 85 10 93 2 8 7 51 10 95 11 125 12 134 41 225
15 47 36 94 48 105 156 148 202 373 114 554 -30 62 -106 150 -160 185 -15 10
-36 36 -48 59 -56 108 -152 204 -255 254 -47 23 -54 32 -89 105 -50 108 -150
209 -256 261 -257 126 -546 58 -724 -168 l-48 -60 -88 2 -88 2 -58 55 c-56 55
-168 118 -259 147 -22 7 -85 13 -140 14 l-100 2 -71 70 c-127 127 -292 184
-474 162z"/>
</g>
</svg>
